<svg width="161" height="34" viewBox="0 0 161 34" fill="none" xmlns="http://www.w3.org/2000/svg">
<path d="M19.56 33H11.448L0.168 1.32H8.256L15.504 23.856L22.752 1.32H30.84L19.56 33ZM29.3826 1.32H49.6146V7.608H36.5346V14.064H49.4946V20.16H36.5346V26.712H49.6146V33H29.3826V1.32ZM55.9273 7.608H48.3673V1.32H70.6393V7.608H63.1033V33H55.9273V7.608ZM74.7293 17.136C74.7293 18.944 75.0973 20.584 75.8333 22.056C76.5853 23.512 77.6173 24.672 78.9293 25.536C80.2573 26.4 81.7933 26.832 83.5373 26.832C85.2813 26.832 86.8093 26.4 88.1213 25.536C89.4493 24.672 90.4813 23.512 91.2173 22.056C91.9693 20.584 92.3453 18.944 92.3453 17.136C92.3453 15.328 91.9693 13.696 91.2173 12.24C90.4813 10.784 89.4493 9.624 88.1213 8.76C86.8093 7.88 85.2813 7.44 83.5373 7.44C81.7933 7.44 80.2573 7.88 78.9293 8.76C77.6173 9.624 76.5853 10.784 75.8333 12.24C75.0973 13.696 74.7293 15.328 74.7293 17.136ZM67.2653 17.136C67.2653 14.832 67.6733 12.688 68.4893 10.704C69.3053 8.704 70.4493 6.96 71.9213 5.472C73.3933 3.984 75.1213 2.824 77.1053 1.992C79.0893 1.16 81.2333 0.743998 83.5373 0.743998C85.8733 0.743998 88.0253 1.16 89.9933 1.992C91.9773 2.824 93.6973 3.984 95.1533 5.472C96.6253 6.96 97.7613 8.704 98.5613 10.704C99.3773 12.688 99.7853 14.832 99.7853 17.136C99.7853 19.456 99.3933 21.616 98.6093 23.616C97.8253 25.6 96.7053 27.344 95.2493 28.848C93.7933 30.336 92.0733 31.496 90.0893 32.328C88.1053 33.16 85.9213 33.576 83.5373 33.576C81.1053 33.576 78.8893 33.16 76.8893 32.328C74.9053 31.496 73.1933 30.336 71.7533 28.848C70.3133 27.344 69.2013 25.6 68.4173 23.616C67.6493 21.616 67.2653 19.456 67.2653 17.136ZM105.354 17.136C105.354 18.944 105.722 20.584 106.458 22.056C107.21 23.512 108.242 24.672 109.554 25.536C110.882 26.4 112.418 26.832 114.162 26.832C115.906 26.832 117.434 26.4 118.746 25.536C120.074 24.672 121.106 23.512 121.842 22.056C122.594 20.584 122.97 18.944 122.97 17.136C122.97 15.328 122.594 13.696 121.842 12.24C121.106 10.784 120.074 9.624 118.746 8.76C117.434 7.88 115.906 7.44 114.162 7.44C112.418 7.44 110.882 7.88 109.554 8.76C108.242 9.624 107.21 10.784 106.458 12.24C105.722 13.696 105.354 15.328 105.354 17.136ZM97.8903 17.136C97.8903 14.832 98.2983 12.688 99.1143 10.704C99.9303 8.704 101.074 6.96 102.546 5.472C104.018 3.984 105.746 2.824 107.73 1.992C109.714 1.16 111.858 0.743998 114.162 0.743998C116.498 0.743998 118.65 1.16 120.618 1.992C122.602 2.824 124.322 3.984 125.778 5.472C127.25 6.96 128.386 8.704 129.186 10.704C130.002 12.688 130.41 14.832 130.41 17.136C130.41 19.456 130.018 21.616 129.234 23.616C128.45 25.6 127.33 27.344 125.874 28.848C124.418 30.336 122.698 31.496 120.714 32.328C118.73 33.16 116.546 33.576 114.162 33.576C111.73 33.576 109.514 33.16 107.514 32.328C105.53 31.496 103.818 30.336 102.378 28.848C100.938 27.344 99.8263 25.6 99.0423 23.616C98.2743 21.616 97.8903 19.456 97.8903 17.136ZM129.715 1.32H136.891V26.712H148.387V33H129.715V1.32ZM156.443 33.576C155.259 33.576 154.235 33.152 153.371 32.304C152.523 31.44 152.099 30.416 152.099 29.232C152.099 28.016 152.523 26.984 153.371 26.136C154.235 25.272 155.259 24.84 156.443 24.84C157.659 24.84 158.691 25.272 159.539 26.136C160.387 26.984 160.811 28.016 160.811 29.232C160.811 30.416 160.387 31.44 159.539 32.304C158.691 33.152 157.659 33.576 156.443 33.576Z" fill="white"/>
</svg>
